<svg width="506" height="41" viewBox="0 0 506 41" fill="none" xmlns="http://www.w3.org/2000/svg">
<circle cx="485.5" cy="20.5" r="20.5" fill="#59A1F2" fill-opacity="0.22"/>
<path d="M488.184 23.1906H489.959V24.5177H488.184V27.4884H486.549V24.5177H480.722V23.5597L486.452 14.6915H488.184V23.1906ZM482.567 23.1906H486.549V16.9152L486.355 17.2667L482.567 23.1906Z" fill="#59A1F2"/>
<circle cx="329.5" cy="20.5" r="20" fill="#59A1F2" fill-opacity="0.5" stroke="#59A1F2"/>
<path d="M327.684 20.299H328.905C329.673 20.2872 330.276 20.0851 330.716 19.6925C331.155 19.2999 331.375 18.7697 331.375 18.1017C331.375 16.6017 330.628 15.8517 329.134 15.8517C328.431 15.8517 327.868 16.0538 327.446 16.4581C327.03 16.8566 326.822 17.3868 326.822 18.049H325.196C325.196 17.0353 325.565 16.1945 326.304 15.5265C327.048 14.8527 327.991 14.5157 329.134 14.5157C330.341 14.5157 331.287 14.8351 331.973 15.4738C332.658 16.1124 333.001 17.0001 333.001 18.1368C333.001 18.6935 332.819 19.2325 332.456 19.754C332.099 20.2755 331.609 20.6652 330.988 20.923C331.691 21.1456 332.233 21.5148 332.614 22.0304C333.001 22.546 333.194 23.1759 333.194 23.92C333.194 25.0685 332.819 25.9796 332.069 26.6534C331.319 27.3273 330.344 27.6642 329.143 27.6642C327.941 27.6642 326.963 27.339 326.207 26.6886C325.457 26.0382 325.082 25.1798 325.082 24.1134H326.717C326.717 24.7872 326.936 25.3263 327.376 25.7306C327.815 26.1349 328.404 26.337 329.143 26.337C329.928 26.337 330.528 26.132 330.944 25.7218C331.36 25.3116 331.568 24.7228 331.568 23.9552C331.568 23.2111 331.34 22.6398 330.883 22.2413C330.426 21.8429 329.767 21.6378 328.905 21.6261H327.684V20.299Z" fill="#FFFEFE"/>
<circle cx="214" cy="21" r="3" fill="#59A1F2"/>
<circle cx="252" cy="21" r="3" fill="#59A1F2"/>
<circle cx="290" cy="21" r="3" fill="#59A1F2"/>
<circle cx="369" cy="21" r="3" fill="#C4C4C4"/>
<circle cx="407" cy="21" r="3" fill="#C4C4C4"/>
<circle cx="445" cy="21" r="3" fill="#C4C4C4"/>
<circle cx="174.5" cy="20.5" r="20" fill="#59A1F2" fill-opacity="0.5" stroke="#59A1F2"/>
<path d="M177.728 27.4884H169.343V26.3195L173.773 21.3976C174.429 20.6534 174.88 20.0499 175.126 19.587C175.378 19.1183 175.504 18.6349 175.504 18.1368C175.504 17.4689 175.302 16.921 174.898 16.4933C174.493 16.0656 173.954 15.8517 173.281 15.8517C172.472 15.8517 171.842 16.0831 171.391 16.546C170.946 17.0031 170.723 17.6417 170.723 18.462H169.097C169.097 17.2843 169.475 16.3322 170.231 15.6056C170.992 14.879 172.009 14.5157 173.281 14.5157C174.47 14.5157 175.41 14.8292 176.102 15.4562C176.793 16.0773 177.139 16.9064 177.139 17.9435C177.139 19.2032 176.336 20.7032 174.731 22.4435L171.303 26.1613H177.728V27.4884Z" fill="#FFFEFE"/>
<circle cx="60" cy="21" r="3" fill="#59A1F2"/>
<circle cx="98" cy="21" r="3" fill="#59A1F2"/>
<circle cx="136" cy="21" r="3" fill="#59A1F2"/>
<circle cx="20.5" cy="20.5" r="20" fill="#59A1F2" fill-opacity="0.5" stroke="#59A1F2"/>
<path d="M21.663 27.4884H20.0283V16.6515L16.7499 17.8556V16.379L21.4081 14.63H21.663V27.4884Z" fill="#FFFEFE"/>
</svg>
