<svg width="20" height="22" viewBox="0 0 20 22" fill="none" xmlns="http://www.w3.org/2000/svg">
<path d="M11.6328 10.8413L19.7328 2.01125C19.9149 1.77953 20.01 1.48147 19.9992 1.17662C19.9884 0.871778 19.8724 0.582603 19.6746 0.366884C19.4767 0.151164 19.2114 0.02479 18.9318 0.0130151C18.6521 0.00124022 18.3787 0.104932 18.1662 0.303369L10.0662 9.13347L1.96616 0.291256C1.7536 0.0928193 1.48019 -0.0108715 1.20054 0.000903342C0.920905 0.0126782 0.655639 0.139052 0.457757 0.354771C0.259874 0.57049 0.143948 0.859665 0.133147 1.16451C0.122346 1.46936 0.217464 1.76742 0.399493 1.99914L8.49949 10.8413L0.388382 19.6715C0.272069 19.78 0.177602 19.9137 0.11091 20.0639C0.044217 20.2142 0.00673852 20.3779 0.000827977 20.5447C-0.00508257 20.7115 0.0207018 20.8779 0.0765624 21.0333C0.132423 21.1887 0.217154 21.3299 0.325438 21.448C0.433721 21.566 0.563218 21.6584 0.705801 21.7193C0.848384 21.7802 1.00098 21.8083 1.154 21.8018C1.30702 21.7954 1.45717 21.7545 1.59502 21.6818C1.73287 21.6091 1.85544 21.5061 1.95505 21.3793L10.0662 12.5492L18.1662 21.3793C18.3787 21.5778 18.6521 21.6815 18.9318 21.6697C19.2114 21.6579 19.4767 21.5315 19.6746 21.3158C19.8724 21.1001 19.9884 20.8109 19.9992 20.5061C20.01 20.2012 19.9149 19.9032 19.7328 19.6715L11.6328 10.8413Z" fill="#606060"/>
</svg>
