<svg width="40" height="40" viewBox="0 0 40 40" fill="none" xmlns="http://www.w3.org/2000/svg">
<g clip-path="url(#clip0)">
<path d="M7.30376 0C3.2578 0 0 3.23266 0 7.24739V32.4439C0 36.4587 3.2578 39.6913 7.30376 39.6913H21.0663V24.1745H16.9313V18.588H21.0663V13.8151C21.0663 10.0652 23.5094 6.62226 29.1375 6.62226C31.4162 6.62226 33.1013 6.83933 33.1013 6.83933L32.9688 12.0563C32.9688 12.0563 31.2502 12.0402 29.375 12.0402C27.3454 12.0402 27.02 12.9681 27.02 14.5085V18.588H33.13L32.8638 24.1745H27.02V39.6914H32.6962C36.7422 39.6914 40 36.4587 40 32.444V7.24743C40 3.2327 36.7422 3.96913e-05 32.6962 3.96913e-05H7.30372L7.30376 0Z" fill="#59A1F2"/>
</g>
<defs>
<clipPath id="clip0">
<rect width="40" height="39.6913" fill="white"/>
</clipPath>
</defs>
</svg>
