<svg width="40" height="39" viewBox="0 0 40 39" fill="none" xmlns="http://www.w3.org/2000/svg">
<g clip-path="url(#clip0)">
<path d="M11.8182 0.889343C5.3 0.889343 0 5.89801 0 12.0579V27.522C0 33.6819 5.3 38.6906 11.8182 38.6906H28.1818C34.7 38.6906 40 33.6819 40 27.522V12.0579C40 5.89801 34.7 0.889343 28.1818 0.889343H11.8182ZM30.9091 7.7623C31.9091 7.7623 32.7273 8.5355 32.7273 9.48053C32.7273 10.4256 31.9091 11.1988 30.9091 11.1988C29.9091 11.1988 29.0909 10.4256 29.0909 9.48053C29.0909 8.5355 29.9091 7.7623 30.9091 7.7623ZM20 10.3397C25.5182 10.3397 30 14.5751 30 19.79C30 25.0048 25.5182 29.2403 20 29.2403C14.4818 29.2403 10 25.0048 10 19.79C10 14.5751 14.4818 10.3397 20 10.3397ZM20 12.0579C15.4909 12.0579 11.8182 15.5287 11.8182 19.79C11.8182 24.0512 15.4909 27.522 20 27.522C24.5091 27.522 28.1818 24.0512 28.1818 19.79C28.1818 15.5287 24.5091 12.0579 20 12.0579Z" fill="#59A1F2"/>
</g>
<defs>
<clipPath id="clip0">
<rect width="40" height="37.7067" fill="white" transform="translate(0 0.984558)"/>
</clipPath>
</defs>
</svg>
