<svg width="13" height="15" viewBox="0 0 13 15" fill="none" xmlns="http://www.w3.org/2000/svg">
<path d="M7.11584 0.620739C6.99411 0.624287 6.87853 0.675071 6.79358 0.76234L5.58386 1.97206C5.55054 1.99747 5.52077 2.02723 5.49536 2.06056L5.38733 2.16859C5.29945 2.2565 5.25009 2.37571 5.25009 2.50001C5.25009 2.62431 5.29945 2.74352 5.38733 2.83143L6.79358 4.23768C6.83677 4.28267 6.88851 4.31858 6.94576 4.34333C7.003 4.36807 7.06461 4.38114 7.12697 4.38177C7.18934 4.38241 7.2512 4.37059 7.30894 4.34702C7.36667 4.32345 7.41913 4.28859 7.46323 4.24449C7.50733 4.20039 7.54218 4.14794 7.56576 4.0902C7.58933 4.03246 7.60115 3.9706 7.60051 3.90823C7.59988 3.84587 7.58681 3.78426 7.56207 3.72702C7.53732 3.66977 7.50141 3.61803 7.45642 3.57484L6.70447 2.82289C9.20287 2.93019 11.1875 4.97454 11.1875 7.50001C11.1875 9.08625 10.401 10.4795 9.19836 11.3287C9.14806 11.3643 9.10524 11.4093 9.07236 11.4614C9.03947 11.5134 9.01716 11.5714 9.0067 11.6321C8.99624 11.6928 8.99783 11.7549 9.01139 11.815C9.02494 11.8751 9.0502 11.9319 9.08571 11.9822C9.12122 12.0325 9.16629 12.0753 9.21834 12.1082C9.2704 12.141 9.32843 12.1633 9.3891 12.1738C9.44978 12.1842 9.51192 12.1826 9.57198 12.1691C9.63204 12.1555 9.68884 12.1303 9.73914 12.0947C11.1802 11.0771 12.125 9.3969 12.125 7.50001C12.125 4.5616 9.85811 2.1453 6.98218 1.89943L7.45642 1.42518C7.52405 1.35932 7.57021 1.27458 7.58888 1.18205C7.60755 1.08951 7.59784 0.9935 7.56104 0.906573C7.52424 0.819645 7.46205 0.745853 7.38262 0.694853C7.30318 0.643853 7.2102 0.618021 7.11584 0.620739ZM3.55566 2.81617C3.45017 2.81183 3.34629 2.84323 3.26086 2.90528C1.81976 3.92292 0.875 5.60312 0.875 7.50001C0.875 10.4384 3.14189 12.8547 6.01782 13.1006L5.54358 13.5748C5.49859 13.618 5.46268 13.6698 5.43793 13.727C5.41319 13.7843 5.40012 13.8459 5.39949 13.9082C5.39885 13.9706 5.41067 14.0325 5.43424 14.0902C5.45782 14.1479 5.49267 14.2004 5.53677 14.2445C5.58087 14.2886 5.63333 14.3234 5.69106 14.347C5.7488 14.3706 5.81066 14.3824 5.87303 14.3818C5.93539 14.3811 5.997 14.3681 6.05424 14.3433C6.11149 14.3186 6.16323 14.2827 6.20642 14.2377L7.41614 13.028C7.44946 13.0026 7.47923 12.9728 7.50464 12.9395L7.61267 12.8314C7.70055 12.7435 7.74991 12.6243 7.74991 12.5C7.74991 12.3757 7.70055 12.2565 7.61267 12.1686L6.20642 10.7623C6.16273 10.7173 6.11045 10.6816 6.05268 10.6571C5.99492 10.6327 5.93284 10.6201 5.87012 10.6201C5.77683 10.6202 5.68567 10.648 5.6083 10.7001C5.53093 10.7523 5.47087 10.8263 5.43581 10.9127C5.40075 10.9992 5.39227 11.0941 5.41147 11.1854C5.43067 11.2767 5.47667 11.3602 5.54358 11.4252L6.29553 12.1771C3.79713 12.0698 1.8125 10.0255 1.8125 7.50001C1.8125 5.91377 2.59899 4.52052 3.80164 3.67128C3.88286 3.61561 3.9445 3.53577 3.97779 3.4431C4.01109 3.35043 4.01436 3.24962 3.98714 3.15499C3.95992 3.06035 3.90358 2.97669 3.82614 2.91588C3.74869 2.85506 3.65406 2.82018 3.55566 2.81617Z" fill="#59A1F2"/>
</svg>
