<svg width="40" height="40" viewBox="0 0 40 40" fill="none" xmlns="http://www.w3.org/2000/svg">
<g clip-path="url(#clip0)">
<path d="M34.979 39.6437H5.015C3.63645 39.6437 2.45948 39.1598 1.48408 38.1919C0.508692 37.2241 0.0209961 36.0562 0.0209961 34.6883V4.95547C0.0209961 3.58755 0.508692 2.41966 1.48408 1.4518C2.45948 0.483932 3.63645 0 5.015 0H34.979C36.3576 0 37.5346 0.483932 38.51 1.4518C39.4854 2.41966 39.9731 3.58755 39.9731 4.95547V34.6883C39.9731 36.0562 39.4854 37.2241 38.51 38.1919C37.5346 39.1598 36.3576 39.6437 34.979 39.6437ZM31.7407 9.91093C31.5847 9.98836 31.3506 10.1368 31.0385 10.3562C30.7263 10.5755 30.4727 10.7433 30.2777 10.8594C30.0826 10.9756 29.842 11.0982 29.5559 11.2272C29.2698 11.3563 28.9966 11.4466 28.7365 11.4982C27.7742 10.44 26.5907 9.91093 25.1861 9.91093C22.1429 9.91093 20.6213 11.1756 20.6213 13.705V16.0278C16.4336 15.7955 13.2213 14.2599 10.9844 11.4208C10.3341 12.0919 10.009 12.8274 10.009 13.6275C10.009 15.331 10.6463 16.6215 11.9208 17.499C11.7387 17.499 11.5111 17.5119 11.238 17.5377C10.9649 17.5635 10.7438 17.5635 10.5747 17.5377C10.4057 17.5119 10.2171 17.4474 10.009 17.3441C10.009 18.5314 10.3276 19.5186 10.9649 20.3058C11.6022 21.093 12.48 21.6027 13.5985 21.835C13.3383 22.1447 12.9742 22.2996 12.506 22.2996C12.0898 22.2996 11.7257 22.1835 11.4136 21.9512C11.4136 22.9577 11.9013 23.7385 12.8767 24.2934C13.8521 24.8483 14.951 25.1387 16.1735 25.1645C15.7053 25.8613 15.0225 26.384 14.1252 26.7324C13.2278 27.0808 12.2719 27.2551 11.2575 27.2551C10.8934 27.2551 10.3927 27.1647 9.75541 26.9841C9.11815 26.8034 8.78652 26.7131 8.76051 26.7131C9.17668 27.539 10.0285 28.2487 11.316 28.8424C12.6036 29.436 14.2357 29.7328 16.2125 29.7328C17.9552 29.7328 19.5809 29.4295 21.0895 28.823C22.5981 28.2165 23.8856 27.4099 24.952 26.4033C26.0184 25.3968 26.9353 24.2482 27.7026 22.9577C28.4699 21.6673 29.0422 20.3316 29.4193 18.9508C29.7965 17.57 29.985 16.2085 29.985 14.8664C29.985 14.8148 30.1411 14.7051 30.4532 14.5373C30.7654 14.3696 31.1295 14.1502 31.5457 13.8792C31.9618 13.6082 32.274 13.3049 32.482 12.9694C31.0775 12.9694 30.1411 12.9952 29.6729 13.0468C30.5833 12.5048 31.2726 11.4595 31.7407 9.91093Z" fill="#59A1F2"/>
</g>
<defs>
<clipPath id="clip0">
<rect width="40" height="39.6437" fill="white"/>
</clipPath>
</defs>
</svg>
