<svg width="40" height="40" viewBox="0 0 40 40" fill="none" xmlns="http://www.w3.org/2000/svg">
<path d="M26.1392 0.992279H13.8608C2.65617 0.992279 0 3.58255 0 14.5092V26.483C0 37.4097 2.65617 40 13.8608 40H26.1392C37.3438 40 40 37.4097 40 26.483V14.5092C40 3.58255 37.3176 0.992279 26.1392 0.992279ZM32.2915 28.8185H29.3878C28.2879 28.8185 27.9491 27.9677 25.9704 26.0125C24.2517 24.3876 23.4905 24.1719 23.0668 24.1719C22.468 24.1719 22.2981 24.3365 22.2981 25.1373V27.6959C22.2981 28.3822 22.0768 28.7942 20.2144 28.7942C17.1345 28.7942 13.7171 26.9779 11.3209 23.5941C7.70726 18.6354 6.71854 14.9213 6.71854 14.1533C6.71854 13.7401 6.88728 13.3537 7.70101 13.3537H10.6109C11.3471 13.3537 11.6271 13.684 11.9134 14.452C13.3521 18.5025 15.7483 22.0509 16.737 22.0509C17.102 22.0509 17.2707 21.8864 17.2707 20.9782V16.7948C17.1595 14.8652 16.1182 14.6994 16.1182 14.0144C16.1182 13.684 16.3982 13.3537 16.847 13.3537H21.4231C22.0418 13.3537 22.2693 13.684 22.2693 14.3947V20.0384C22.2693 20.6479 22.5493 20.8637 22.718 20.8637C23.083 20.8637 23.3955 20.6479 24.0717 19.9872C26.1617 17.7017 27.6591 14.1777 27.6591 14.1777C27.8541 13.7645 28.1929 13.3781 28.9291 13.3781H31.839C32.7115 13.3781 32.9065 13.8157 32.7115 14.4251C32.3465 16.0756 28.7854 20.977 28.7854 20.977C28.4791 21.4719 28.3616 21.6877 28.7854 22.2399C29.0978 22.6531 30.1141 23.51 30.7903 24.2779C32.034 25.6554 32.9902 26.8109 33.2452 27.6106C33.5315 28.4041 33.109 28.8173 32.2877 28.8173L32.2915 28.8185Z" fill="#59A1F2"/>
</svg>
